<svg width="7" height="12" viewBox="0 0 7 12" fill="none" xmlns="http://www.w3.org/2000/svg">
<path d="M6.68912 0.31571C6.78767 0.415135 6.86585 0.533234 6.9192 0.663246C6.97254 0.793257 7 0.932628 7 1.07338C7 1.21414 6.97254 1.35351 6.9192 1.48352C6.86585 1.61353 6.78767 1.73163 6.68912 1.83105L2.56452 6.00094L6.68912 10.1708C6.88788 10.3718 6.99955 10.6443 6.99955 10.9285C6.99955 11.2127 6.88788 11.4852 6.68912 11.6862C6.49036 11.8871 6.22077 12 5.93968 12C5.65858 12 5.389 11.8871 5.19023 11.6862L0.310879 6.75323C0.212331 6.65381 0.134147 6.53571 0.080802 6.4057C0.0274572 6.27569 -4.76837e-07 6.13632 -4.76837e-07 5.99556C-4.76837e-07 5.85481 0.0274572 5.71544 0.080802 5.58543C0.134147 5.45541 0.212331 5.33732 0.310879 5.23789L5.19023 0.304962C5.59419 -0.103428 6.27453 -0.103428 6.68912 0.31571Z" fill="#E16E6E"/>
</svg>
