<svg width="25" height="25" viewBox="0 0 25 25" fill="none" xmlns="http://www.w3.org/2000/svg">
<path d="M12.5 9.375C10.8062 9.375 9.375 10.8062 9.375 12.5C9.375 14.1937 10.8062 15.625 12.5 15.625C14.1937 15.625 15.625 14.1937 15.625 12.5C15.625 10.8062 14.1937 9.375 12.5 9.375Z" fill="#808080"/>
<path d="M20.8334 5.20801H18.1396L15.3198 2.38822C15.2233 2.2913 15.1085 2.21444 14.9821 2.16206C14.8557 2.10967 14.7202 2.08281 14.5834 2.08301H10.4167C10.2799 2.08281 10.1444 2.10967 10.018 2.16206C9.8916 2.21444 9.77682 2.2913 9.68025 2.38822L6.86046 5.20801H4.16671C3.01775 5.20801 2.08337 6.14238 2.08337 7.29134V18.7497C2.08337 19.8986 3.01775 20.833 4.16671 20.833H20.8334C21.9823 20.833 22.9167 19.8986 22.9167 18.7497V7.29134C22.9167 6.14238 21.9823 5.20801 20.8334 5.20801ZM12.5 17.708C9.67712 17.708 7.29171 15.3226 7.29171 12.4997C7.29171 9.67676 9.67712 7.29134 12.5 7.29134C15.323 7.29134 17.7084 9.67676 17.7084 12.4997C17.7084 15.3226 15.323 17.708 12.5 17.708Z" fill="#808080"/>
</svg>
