<svg width="28" height="28" viewBox="0 0 28 28" fill="none" xmlns="http://www.w3.org/2000/svg">
<path d="M24.5112 21.4652C26.1802 19.9777 27.1253 17.995 27.1253 15.9375C27.1253 13.7509 26.1016 11.7059 24.2429 10.1789C22.4338 8.69329 20.0393 7.875 17.5 7.875C14.9608 7.875 12.5662 8.69329 10.7574 10.179C8.89864 11.7059 7.875 13.7509 7.875 15.9375C7.875 18.1241 8.89864 20.1691 10.7574 21.6961C12.5662 23.1819 14.9608 24.0001 17.5 24.0001C17.8384 24.0001 18.1788 23.9852 18.5164 23.9555L19.0931 24.4554C21.08 26.1771 23.6209 27.1249 26.25 27.125H27.125V25.2625L26.8687 25.0063C25.8578 23.9924 25.0567 22.7891 24.5112 21.4652ZM20.2392 23.1328L19.082 22.1298L18.6961 22.1771C18.2993 22.2256 17.8998 22.25 17.5 22.25C13.1578 22.25 9.625 19.4182 9.625 15.9375C9.625 12.4568 13.1578 9.625 17.5 9.625C21.8422 9.625 25.375 12.4568 25.375 15.9375C25.375 17.6717 24.5098 19.2906 22.9389 20.4962L22.4349 20.8829L22.6675 21.541C23.144 22.8852 23.8444 24.1392 24.7391 25.2498C23.073 24.9716 21.5158 24.2391 20.2392 23.1328Z" fill="white"/>
<path d="M3.29137 17.362C4.11044 16.3252 4.75353 15.1608 5.19493 13.9154L5.42571 13.2605L4.9222 12.8741C3.44083 11.7374 2.625 10.2117 2.625 8.57812C2.625 5.29555 5.96143 2.625 10.0625 2.625C13.0795 2.625 15.6826 4.07039 16.848 6.14141C17.0644 6.13091 17.2817 6.125 17.5 6.125C17.9385 6.125 18.373 6.14627 18.8034 6.18882C18.3531 5.02206 17.5709 3.95697 16.4956 3.07377C14.7696 1.65588 12.4852 0.875 10.0625 0.875C7.63984 0.875 5.35544 1.65588 3.62928 3.07377C1.85314 4.53277 0.875 6.48758 0.875 8.57812C0.875 10.5359 1.76925 12.4224 3.34961 13.8414C2.83387 15.0825 2.08029 16.2108 1.13132 17.1625L0.875 17.4188V19.25H1.75C3.36804 19.2498 4.96383 18.873 6.41107 18.1494C6.25237 17.5479 6.15939 16.931 6.13375 16.3095C5.25535 16.8243 4.29322 17.1805 3.29137 17.362Z" fill="white"/>
</svg>
