<svg width="25" height="25" viewBox="0 0 25 25" fill="none" xmlns="http://www.w3.org/2000/svg">
<path d="M4.60416 21.4364C4.45964 21.4362 4.31676 21.4059 4.18459 21.3474C4.05242 21.2889 3.93386 21.2036 3.83646 21.0968C3.73729 20.991 3.66161 20.8654 3.6144 20.7282C3.56719 20.5911 3.5495 20.4455 3.5625 20.301L3.81771 17.4948L15.6073 5.70935L19.2917 9.39268L7.50521 21.1771L4.69896 21.4323C4.66744 21.4352 4.63581 21.4366 4.60416 21.4364ZM20.0271 8.65622L16.3437 4.97289L18.5531 2.76351C18.6499 2.66666 18.7647 2.58983 18.8912 2.53741C19.0177 2.48499 19.1532 2.45801 19.2901 2.45801C19.427 2.45801 19.5625 2.48499 19.689 2.53741C19.8155 2.58983 19.9303 2.66666 20.0271 2.76351L22.2365 4.97289C22.3333 5.06963 22.4101 5.18452 22.4626 5.31097C22.515 5.43743 22.542 5.57298 22.542 5.70987C22.542 5.84676 22.515 5.98231 22.4626 6.10877C22.4101 6.23522 22.3333 6.35011 22.2365 6.44685L20.0281 8.65518L20.0271 8.65622Z" fill="white"/>
</svg>
