<svg width="25" height="25" viewBox="0 0 25 25" fill="none" xmlns="http://www.w3.org/2000/svg">
<path d="M24.5462 13.5498L20.5709 18.4326C20.392 18.6279 20.1522 18.7297 19.8514 18.7378C19.5506 18.7459 19.2905 18.6849 19.071 18.5547C18.8515 18.4245 18.7418 18.2699 18.7418 18.0908V15.625H15.62C15.1973 15.625 14.8315 15.4744 14.5226 15.1733C14.2136 14.8722 14.0592 14.502 14.0592 14.0625V10.9375C14.0592 10.498 14.2136 10.1278 14.5226 9.82666C14.8315 9.52555 15.1973 9.375 15.62 9.375H18.7418V6.93359C18.7418 6.73828 18.8515 6.57552 19.071 6.44531C19.2905 6.3151 19.5506 6.25407 19.8514 6.26221C20.1522 6.27035 20.392 6.37207 20.5709 6.56738L24.5462 11.4258C24.8389 11.7188 24.9852 12.0728 24.9852 12.4878C24.9852 12.9028 24.8389 13.2568 24.5462 13.5498ZM15.6322 6.25C15.2014 6.25 14.8315 6.09538 14.5226 5.78613C14.2136 5.47689 14.0592 5.10661 14.0592 4.67529C14.0592 4.24398 13.9088 3.87777 13.608 3.57666C13.3072 3.27555 12.9373 3.125 12.4983 3.125H4.69405C4.27131 3.125 3.90549 3.27555 3.59657 3.57666C3.28765 3.87777 3.13319 4.24805 3.13319 4.6875V20.3125C3.13319 20.7357 3.28765 21.1019 3.59657 21.4111C3.90549 21.7204 4.27131 21.875 4.69405 21.875H12.4983C12.9373 21.875 13.3072 21.7204 13.608 21.4111C13.9088 21.1019 14.0592 20.7316 14.0592 20.3003C14.0592 19.869 14.2136 19.5028 14.5226 19.2017C14.8315 18.9006 15.2014 18.75 15.6322 18.75C16.0631 18.75 16.4289 18.9006 16.7297 19.2017C17.0305 19.5028 17.1809 19.873 17.1809 20.3125V21.875C17.1809 22.7376 16.876 23.4741 16.2663 24.0845C15.6566 24.6948 14.9209 25 14.0592 25H3.13319C2.27147 25 1.53575 24.6948 0.926039 24.0845C0.316329 23.4741 0.0114746 22.7376 0.0114746 21.875V3.125C0.0114746 2.26237 0.316329 1.52588 0.926039 0.915527C1.53575 0.305176 2.27147 0 3.13319 0H14.0592C14.9209 0 15.6566 0.305176 16.2663 0.915527C16.876 1.52588 17.1809 2.26237 17.1809 3.125V4.6875C17.1809 5.11068 17.0305 5.47689 16.7297 5.78613C16.4289 6.09538 16.0631 6.25 15.6322 6.25Z" fill="white"/>
</svg>
