<svg width="25" height="28" viewBox="0 0 25 28" fill="none" xmlns="http://www.w3.org/2000/svg">
<path d="M11 13.6111V20.6236C11 20.9883 11.1449 21.338 11.4027 21.5959C11.6606 21.8537 12.0103 21.9986 12.375 21.9986C12.7397 21.9986 13.0894 21.8537 13.3473 21.5959C13.6051 21.338 13.75 20.9883 13.75 20.6236V13.6111C15.4193 13.2704 16.9026 12.3219 17.9124 10.9497C18.9222 9.57741 19.3864 7.87911 19.2152 6.184C19.0439 4.4889 18.2494 2.91776 16.9856 1.77518C15.7218 0.63261 14.0787 0 12.375 0C10.6713 0 9.02823 0.63261 7.76441 1.77518C6.5006 2.91776 5.70605 4.4889 5.53481 6.184C5.36357 7.87911 5.82784 9.57741 6.8376 10.9497C7.84737 12.3219 9.33069 13.2704 11 13.6111ZM12.375 2.7486C13.1908 2.7486 13.9884 2.99052 14.6667 3.44379C15.3451 3.89705 15.8738 4.54128 16.186 5.29503C16.4982 6.04877 16.5799 6.87817 16.4207 7.67835C16.2616 8.47852 15.8687 9.21352 15.2918 9.79041C14.7149 10.3673 13.9799 10.7602 13.1797 10.9193C12.3796 11.0785 11.5502 10.9968 10.7964 10.6846C10.0427 10.3724 9.39845 9.84368 8.94519 9.16533C8.49193 8.48697 8.25 7.68945 8.25 6.8736C8.25 5.77958 8.6846 4.73037 9.45818 3.95678C10.2318 3.18319 11.281 2.7486 12.375 2.7486ZM18.1637 17.0761C17.9832 17.0382 17.7969 17.0362 17.6156 17.0703C17.4342 17.1043 17.2614 17.1738 17.1069 17.2746C16.9524 17.3755 16.8193 17.5058 16.7152 17.6581C16.611 17.8104 16.5379 17.9818 16.5 18.1623C16.4621 18.3429 16.4601 18.5292 16.4942 18.7105C16.5282 18.8919 16.5977 19.0647 16.6986 19.2192C16.7994 19.3737 16.9297 19.5068 17.082 19.6109C17.2344 19.7151 17.4057 19.7882 17.5863 19.8261C20.7075 20.4448 22 21.5586 22 21.9986C22 22.7961 18.6313 24.7486 12.375 24.7486C6.11875 24.7486 2.75 22.7961 2.75 21.9986C2.75 21.5586 4.0425 20.4448 7.16375 19.7711C7.34432 19.7332 7.51565 19.6601 7.66796 19.5559C7.82027 19.4518 7.95058 19.3187 8.05145 19.1642C8.15232 19.0097 8.22177 18.8369 8.25583 18.6555C8.2899 18.4742 8.28792 18.2879 8.25 18.1073C8.21208 17.9268 8.13897 17.7554 8.03483 17.6031C7.9307 17.4508 7.79759 17.3205 7.6431 17.2197C7.4886 17.1188 7.31575 17.0493 7.13442 17.0153C6.95309 16.9812 6.76682 16.9832 6.58625 17.0211C2.40625 17.9836 0 19.7848 0 21.9986C0 25.6148 6.22875 27.4986 12.375 27.4986C18.5212 27.4986 24.75 25.6148 24.75 21.9986C24.75 19.7848 22.3438 17.9836 18.1637 17.0761Z" fill="#C8C8C8"/>
</svg>
