<svg width="28" height="20" viewBox="0 0 28 20" fill="none" xmlns="http://www.w3.org/2000/svg">
<path d="M26.16 8.1H1.84C0.791197 8.1 0.699997 8.9493 0.699997 10C0.699997 11.0507 0.791197 11.9 1.84 11.9H26.16C27.2088 11.9 27.3 11.0507 27.3 10C27.3 8.9493 27.2088 8.1 26.16 8.1ZM26.16 15.7H1.84C0.791197 15.7 0.699997 16.5493 0.699997 17.6C0.699997 18.6507 0.791197 19.5 1.84 19.5H26.16C27.2088 19.5 27.3 18.6507 27.3 17.6C27.3 16.5493 27.2088 15.7 26.16 15.7ZM1.84 4.3H26.16C27.2088 4.3 27.3 3.4507 27.3 2.4C27.3 1.3493 27.2088 0.5 26.16 0.5H1.84C0.791197 0.5 0.699997 1.3493 0.699997 2.4C0.699997 3.4507 0.791197 4.3 1.84 4.3Z" fill="#C8C8C8"/>
</svg>
