<svg width="26" height="28" viewBox="0 0 26 28" fill="none" xmlns="http://www.w3.org/2000/svg">
<path d="M6.66666 11.4175C7.7627 11.4175 8.83413 11.0925 9.74545 10.4836C10.6568 9.87464 11.3671 9.00915 11.7865 7.99654C12.2059 6.98393 12.3157 5.86969 12.1018 4.79471C11.888 3.71973 11.3602 2.7323 10.5852 1.95729C9.8102 1.18227 8.82277 0.654478 7.74779 0.440652C6.67281 0.226825 5.55857 0.336569 4.54596 0.756004C3.53335 1.17544 2.66786 1.88573 2.05894 2.79705C1.45001 3.70837 1.125 4.7798 1.125 5.87584C1.125 7.34558 1.70885 8.75512 2.74811 9.79439C3.78738 10.8337 5.19692 11.4175 6.66666 11.4175ZM6.66666 3.50084C7.13639 3.50084 7.59558 3.64013 7.98614 3.9011C8.37671 4.16206 8.68112 4.53299 8.86088 4.96696C9.04064 5.40094 9.08767 5.87847 8.99603 6.33918C8.90439 6.79988 8.67819 7.22307 8.34604 7.55522C8.01389 7.88736 7.59071 8.11356 7.13 8.2052C6.6693 8.29684 6.19176 8.24981 5.75779 8.07005C5.32382 7.89029 4.95289 7.58588 4.69192 7.19531C4.43095 6.80475 4.29166 6.34557 4.29166 5.87584C4.29166 5.24595 4.54189 4.64186 4.98728 4.19646C5.43268 3.75106 6.03677 3.50084 6.66666 3.50084ZM19.3333 16.1675C18.2373 16.1675 17.1659 16.4925 16.2545 17.1014C15.3432 17.7104 14.6329 18.5759 14.2135 19.5885C13.7941 20.6011 13.6843 21.7153 13.8981 22.7903C14.112 23.8653 14.6398 24.8527 15.4148 25.6277C16.1898 26.4027 17.1772 26.9305 18.2522 27.1444C19.3272 27.3582 20.4414 27.2484 21.454 26.829C22.4666 26.4096 23.3321 25.6993 23.9411 24.788C24.55 23.8766 24.875 22.8052 24.875 21.7092C24.875 20.2394 24.2911 18.8299 23.2519 17.7906C22.2126 16.7514 20.8031 16.1675 19.3333 16.1675ZM19.3333 24.0842C18.8636 24.0842 18.4044 23.9449 18.0139 23.6839C17.6233 23.4229 17.3189 23.052 17.1391 22.618C16.9594 22.1841 16.9123 21.7065 17.004 21.2458C17.0956 20.7851 17.3218 20.3619 17.654 20.0298C17.9861 19.6976 18.4093 19.4714 18.87 19.3798C19.3307 19.2882 19.8082 19.3352 20.2422 19.515C20.6762 19.6947 21.0471 19.9991 21.3081 20.3897C21.569 20.7803 21.7083 21.2394 21.7083 21.7092C21.7083 22.3391 21.4581 22.9431 21.0127 23.3885C20.5673 23.8339 19.9632 24.0842 19.3333 24.0842ZM25.255 0.745837C25.1241 0.614663 24.9686 0.510594 24.7975 0.439587C24.6263 0.368581 24.4428 0.332031 24.2575 0.332031C24.0722 0.332031 23.8887 0.368581 23.7175 0.439587C23.5464 0.510594 23.3909 0.614663 23.26 0.745837L0.744997 23.2608C0.483742 23.5275 0.336158 23.8851 0.33333 24.2583C0.332906 24.5374 0.415323 24.8102 0.570135 25.0423C0.724947 25.2745 0.945186 25.4554 1.20294 25.5623C1.4607 25.6691 1.74437 25.697 2.018 25.6425C2.29163 25.5879 2.54291 25.4533 2.74 25.2558L25.255 2.74084C25.3862 2.60994 25.4902 2.45446 25.5612 2.2833C25.6323 2.11213 25.6688 1.92865 25.6688 1.74334C25.6688 1.55803 25.6323 1.37454 25.5612 1.20337C25.4902 1.03221 25.3862 0.876729 25.255 0.745837Z" fill="#C4C4C4"/>
</svg>
