<svg width="17" height="23" viewBox="0 0 17 23" fill="none" xmlns="http://www.w3.org/2000/svg">
<path d="M2.75706 0.511945L4.01239 0.110611C5.19073 -0.265055 6.44723 0.342778 6.9524 1.53044L7.95456 3.89644C8.3909 4.92661 8.1494 6.13878 7.3549 6.89244L5.14523 8.99011C5.28056 10.2454 5.7029 11.4809 6.40989 12.6966C7.08164 13.8729 7.98259 14.9023 9.05939 15.7241L11.7136 14.8374C12.7204 14.5026 13.8159 14.8888 14.4319 15.7953L15.8704 17.9069C16.5879 18.9616 16.4596 20.4153 15.5694 21.3089L14.6151 22.2668C13.6654 23.2199 12.3086 23.5664 11.0544 23.1744C8.09223 22.2504 5.36923 19.5076 2.88423 14.9459C0.395728 10.3773 -0.482772 6.49928 0.249895 3.31661C0.557895 1.97728 1.51106 0.909778 2.75706 0.511945Z" fill="white"/>
</svg>
