<svg width="32" height="32" viewBox="0 0 32 32" fill="none" xmlns="http://www.w3.org/2000/svg">
<path d="M21.8741 17.1244C23.4264 15.9031 24.5595 14.2284 25.1156 12.3331C25.6717 10.4379 25.6233 8.41648 24.9771 6.55006C24.3309 4.68363 23.119 3.06502 21.5101 1.91942C19.9011 0.773826 17.9751 0.158203 16 0.158203C14.0248 0.158203 12.0988 0.773826 10.4899 1.91942C8.8809 3.06502 7.66901 4.68363 7.0228 6.55006C6.37659 8.41648 6.32819 10.4379 6.88434 12.3331C7.44048 14.2284 8.57351 15.9031 10.1258 17.1244C7.46592 18.19 5.14509 19.9575 3.41071 22.2384C1.67634 24.5193 0.593439 27.2281 0.277464 30.076C0.254592 30.284 0.272899 30.4944 0.331338 30.6952C0.389777 30.8961 0.487204 31.0834 0.618057 31.2466C0.882327 31.5762 1.2667 31.7874 1.68663 31.8335C2.10656 31.8797 2.52763 31.7572 2.85723 31.493C3.18682 31.2287 3.39794 30.8443 3.44413 30.4244C3.79181 27.3293 5.26764 24.4708 7.58964 22.395C9.91166 20.3192 12.9171 19.1717 16.0316 19.1717C19.1462 19.1717 22.1516 20.3192 24.4736 22.395C26.7956 24.4708 28.2715 27.3293 28.6191 30.4244C28.6622 30.8134 28.8478 31.1728 29.1402 31.433C29.4326 31.6932 29.811 31.8359 30.2025 31.8335H30.3766C30.7917 31.7858 31.171 31.5759 31.432 31.2497C31.693 30.9235 31.8145 30.5073 31.77 30.0919C31.4525 27.2359 30.3638 24.5201 28.6205 22.2357C26.8772 19.9513 24.5451 18.1844 21.8741 17.1244ZM16 16.0002C14.7474 16.0002 13.5229 15.6288 12.4814 14.9329C11.4398 14.237 10.6281 13.2478 10.1487 12.0906C9.66937 10.9333 9.54395 9.65987 9.78832 8.43133C10.0327 7.20278 10.6359 6.07429 11.5216 5.18856C12.4074 4.30283 13.5358 3.69964 14.7644 3.45526C15.9929 3.21089 17.2664 3.33631 18.4236 3.81567C19.5809 4.29502 20.57 5.10678 21.2659 6.14829C21.9619 7.1898 22.3333 8.41428 22.3333 9.6669C22.3333 11.3466 21.666 12.9575 20.4783 14.1452C19.2906 15.333 17.6797 16.0002 16 16.0002Z" fill="#C8C8C8"/>
</svg>
