<svg width="14" height="17" viewBox="0 0 14 17" fill="none" xmlns="http://www.w3.org/2000/svg">
<path d="M12.224 10.8974C11.8039 13.3672 9.63769 15.2564 7.03032 15.2564C4.12328 15.2564 1.75758 12.9095 1.75758 10.0256C1.75758 7.14174 4.12328 4.79487 7.03032 4.79487H8.93905L7.10589 6.61344L8.3485 7.84615L12.3031 3.92308L8.3485 0L7.10589 1.23272L8.93905 3.05128H7.03032C5.16576 3.05128 3.37757 3.78608 2.05913 5.09402C0.740692 6.40197 0 8.17593 0 10.0256C0 11.8754 0.740692 13.6493 2.05913 14.9573C3.37757 16.2652 5.16576 17 7.03032 17C10.6149 17 13.5668 14.3367 14 10.8974H12.224Z" fill="white"/>
</svg>
