<svg width="18" height="16" viewBox="0 0 18 16" fill="none" xmlns="http://www.w3.org/2000/svg">
<path d="M3.82599 15.7483L3.8265 15.7483C3.90285 15.7486 3.97626 15.7259 4.03626 15.685C4.0364 15.6849 4.03655 15.6848 4.03669 15.6847L8.85891 12.3559L9.00094 12.2578L9.14296 12.3559L13.9662 15.6854L13.9662 15.6854C14.0265 15.7271 14.1006 15.7503 14.1778 15.75C14.2549 15.7497 14.3288 15.726 14.3887 15.684C14.4485 15.6421 14.4906 15.5847 14.5115 15.5217C14.5322 15.4589 14.5315 15.3917 14.5093 15.3292L14.5092 15.3291L12.6281 10.0238L12.5624 9.8384L12.727 9.73088L17.6024 6.54741L17.6025 6.54734C17.6643 6.50701 17.7087 6.45044 17.7318 6.38755C17.7547 6.32486 17.756 6.25733 17.7355 6.19407C17.715 6.13062 17.6729 6.07277 17.6129 6.03049C17.5529 5.98815 17.4787 5.96428 17.4012 5.96402H11.3869H11.208L11.1503 5.79476L9.33512 0.475875L9.33507 0.475716C9.31374 0.413078 9.27134 0.356206 9.21149 0.314776C9.15149 0.273238 9.07777 0.25 9.00094 0.25C8.9241 0.25 8.85039 0.273238 8.79038 0.314776C8.73053 0.356206 8.68813 0.413078 8.6668 0.475716L8.66676 0.475851L6.85163 5.79653L6.79388 5.96581H6.61502H0.600338H0.600222C0.522545 5.96577 0.448072 5.98949 0.387726 6.03181C0.327543 6.07402 0.285294 6.13188 0.264622 6.19539C0.244011 6.25871 0.245197 6.32632 0.268137 6.3891C0.291153 6.45209 0.335623 6.50875 0.39752 6.54912L0.397535 6.54913L5.27476 9.73082L5.43952 9.83831L5.3738 10.0237L3.49379 15.3276L3.49377 15.3277C3.47714 15.3746 3.47257 15.4241 3.48015 15.4725C3.48773 15.5209 3.50744 15.5679 3.53863 15.6094C3.56987 15.6509 3.6119 15.6859 3.66202 15.7104C3.71217 15.735 3.76842 15.7482 3.82599 15.7483Z" fill="white" stroke="#E06C6C" stroke-width="0.5"/>
</svg>
