<svg width="11" height="11" viewBox="0 0 11 11" fill="none" xmlns="http://www.w3.org/2000/svg">
<path d="M2.53514 10.3123C2.6075 10.3126 2.6781 10.2901 2.73688 10.2479L5.49999 8.24468L8.26309 10.2479C8.32213 10.2907 8.39324 10.3136 8.46617 10.3134C8.53909 10.3131 8.61004 10.2897 8.66876 10.2464C8.72748 10.2032 8.77093 10.1424 8.79282 10.0728C8.81471 10.0032 8.81391 9.92853 8.79053 9.85945L7.71288 6.66752L10.5058 4.75218C10.5663 4.71074 10.612 4.65104 10.6362 4.5818C10.6603 4.51256 10.6617 4.43742 10.6401 4.36734C10.6185 4.29726 10.575 4.23593 10.5161 4.1923C10.4572 4.14867 10.3858 4.12503 10.3125 4.12484H6.86682L5.82698 0.924742C5.80458 0.855653 5.76087 0.795435 5.70213 0.752726C5.64338 0.710016 5.57262 0.687012 5.49999 0.687012C5.42736 0.687012 5.35659 0.710016 5.29785 0.752726C5.2391 0.795435 5.1954 0.855653 5.173 0.924742L4.13315 4.12591H0.687488C0.614066 4.12588 0.542562 4.14935 0.483447 4.1929C0.424332 4.23644 0.380713 4.29777 0.358977 4.3679C0.337241 4.43803 0.338531 4.51328 0.362659 4.58262C0.386786 4.65197 0.432482 4.71176 0.493054 4.75326L3.2871 6.66752L2.21009 9.85859C2.19264 9.91025 2.18773 9.96533 2.19577 10.0193C2.2038 10.0732 2.22456 10.1244 2.25632 10.1688C2.28807 10.2131 2.32992 10.2492 2.3784 10.2742C2.42689 10.2992 2.48061 10.3122 2.53514 10.3123Z" fill="#EF8B8B"/>
</svg>
