<svg width="28" height="28" viewBox="0 0 28 28" fill="none" xmlns="http://www.w3.org/2000/svg">
<path d="M23.8 6.22222H22.4V4.66667C22.4 3.42899 21.9575 2.242 21.1698 1.36684C20.3822 0.491665 19.3139 0 18.2 0H4.2C3.08609 0 2.0178 0.491665 1.23015 1.36684C0.442499 2.242 0 3.42899 0 4.66667V23.3333C0 24.571 0.442499 25.758 1.23015 26.6332C2.0178 27.5083 3.08609 28 4.2 28H23.8C24.9139 28 25.9822 27.5083 26.7698 26.6332C27.5575 25.758 28 24.571 28 23.3333V10.8889C28 9.65121 27.5575 8.46423 26.7698 7.58906C25.9822 6.71389 24.9139 6.22222 23.8 6.22222ZM4.2 3.11111H18.2C18.5713 3.11111 18.9274 3.275 19.1899 3.56672C19.4525 3.85845 19.6 4.25411 19.6 4.66667V6.22222H4.2C3.8287 6.22222 3.4726 6.05833 3.21005 5.76661C2.9475 5.47489 2.8 5.07923 2.8 4.66667C2.8 4.25411 2.9475 3.85845 3.21005 3.56672C3.4726 3.275 3.8287 3.11111 4.2 3.11111ZM25.2 18.6667H23.8C23.4287 18.6667 23.0726 18.5028 22.81 18.2111C22.5475 17.9193 22.4 17.5237 22.4 17.1111C22.4 16.6986 22.5475 16.3029 22.81 16.0112C23.0726 15.7194 23.4287 15.5556 23.8 15.5556H25.2V18.6667ZM25.2 12.4444H23.8C22.6861 12.4444 21.6178 12.9361 20.8302 13.8113C20.0425 14.6864 19.6 15.8734 19.6 17.1111C19.6 18.3488 20.0425 19.5358 20.8302 20.4109C21.6178 21.2861 22.6861 21.7778 23.8 21.7778H25.2V23.3333C25.2 23.7459 25.0525 24.1416 24.7899 24.4333C24.5274 24.725 24.1713 24.8889 23.8 24.8889H4.2C3.8287 24.8889 3.4726 24.725 3.21005 24.4333C2.9475 24.1416 2.8 23.7459 2.8 23.3333V9.06889C3.24977 9.24469 3.72321 9.33412 4.2 9.33333H23.8C24.1713 9.33333 24.5274 9.49722 24.7899 9.78895C25.0525 10.0807 25.2 10.4763 25.2 10.8889V12.4444Z" fill="#C8C8C8"/>
</svg>
