<svg width="20" height="20" viewBox="0 0 20 20" fill="none" xmlns="http://www.w3.org/2000/svg">
<path d="M16.5466 7.43967L14.7599 18.1063C14.7319 18.2594 14.6513 18.3978 14.5319 18.4976C14.4126 18.5975 14.2621 18.6524 14.1066 18.653H5.89323C5.73766 18.6524 5.58718 18.5975 5.46786 18.4976C5.34854 18.3978 5.2679 18.2594 5.2399 18.1063L3.45323 7.43967C3.43784 7.34474 3.44317 7.2476 3.46886 7.15492C3.49455 7.06224 3.53998 6.97622 3.60205 6.90276C3.66411 6.82929 3.74134 6.77012 3.82843 6.72932C3.91551 6.68851 4.01039 6.66702 4.10656 6.66634H15.8799C15.9772 6.66509 16.0736 6.68514 16.1623 6.7251C16.251 6.76507 16.3299 6.82396 16.3934 6.89766C16.457 6.97135 16.5036 7.05806 16.5301 7.1517C16.5565 7.24534 16.5621 7.34363 16.5466 7.43967ZM17.3332 4.66634C17.3332 4.84315 17.263 5.01272 17.138 5.13774C17.0129 5.26277 16.8434 5.33301 16.6666 5.33301H3.33323C3.15642 5.33301 2.98685 5.26277 2.86183 5.13774C2.7368 5.01272 2.66656 4.84315 2.66656 4.66634C2.66656 4.48953 2.7368 4.31996 2.86183 4.19494C2.98685 4.06991 3.15642 3.99967 3.33323 3.99967H6.66656V1.99967C6.66656 1.82286 6.7368 1.65329 6.86183 1.52827C6.98685 1.40325 7.15642 1.33301 7.33323 1.33301H12.6666C12.8434 1.33301 13.0129 1.40325 13.138 1.52827C13.263 1.65329 13.3332 1.82286 13.3332 1.99967V3.99967H16.6666C16.8434 3.99967 17.0129 4.06991 17.138 4.19494C17.263 4.31996 17.3332 4.48953 17.3332 4.66634ZM11.9999 3.99967V2.66634H7.9999V3.99967H11.9999Z" fill="#E06C6C"/>
</svg>
